<?xml version="1.0" encoding="UTF-8"?> <svg xmlns="http://www.w3.org/2000/svg" xmlns:xlink="http://www.w3.org/1999/xlink" height="157.216" id="Layer_1" overflow="visible" viewBox="0 0 157.216 157.216" width="157.216" xml:space="preserve"> <g id="icon_2_"> <circle cx="78.607" cy="78.608" fill="#6EBF3A" r="78.608"></circle> <path d="M114.66,43.313c-8.814-8.817-20.531-13.674-33.01-13.678c-25.716,0-46.646,20.922-46.659,46.639 c0,8.225,2.149,16.243,6.225,23.313L34.6,123.76l24.732-6.49c6.818,3.72,14.488,5.681,22.304,5.681h0.014 c25.71,0,46.646-20.922,46.659-46.642C128.31,63.844,123.467,52.127,114.66,43.313L114.66,43.313z M81.65,115.078h-0.014 c-6.958-0.007-13.783-1.877-19.736-5.408l-1.424-0.845l-14.669,3.853l3.915-14.307l-0.928-1.465 c-3.88-6.17-5.932-13.309-5.925-20.633c0.007-21.375,17.405-38.767,38.794-38.767c10.356,0.007,20.099,4.044,27.42,11.372 c7.32,7.328,11.354,17.066,11.347,27.426C120.424,97.688,103.026,115.078,81.65,115.078L81.65,115.078z M102.922,86.04 c-1.166-0.579-6.896-3.398-7.963-3.789s-1.85-0.587-2.624,0.579c-0.774,1.165-3.008,3.789-3.691,4.571 c-0.685,0.781-1.361,0.879-2.526,0.293c-1.166-0.587-4.927-1.814-9.38-5.785c-3.461-3.092-5.806-6.909-6.476-8.075 c-0.684-1.169-0.077-1.797,0.502-2.38c0.531-0.52,1.172-1.361,1.752-2.041c0.579-0.681,0.774-1.166,1.166-1.944 c0.391-0.778,0.195-1.458-0.098-2.041c-0.293-0.586-2.624-6.323-3.594-8.654c-0.942-2.275-1.905-1.968-2.624-2.003 c-0.677-0.031-1.458-0.038-2.233-0.038c-0.774,0-2.044,0.29-3.105,1.458c-1.075,1.166-4.083,3.985-4.083,9.721 s4.18,11.277,4.76,12.056c0.579,0.778,8.221,12.544,19.91,17.597c2.785,1.2,4.955,1.919,6.651,2.456 c2.791,0.887,5.338,0.761,7.349,0.461c2.232-0.335,6.895-2.819,7.864-5.541c0.971-2.722,0.971-5.053,0.677-5.541 C104.861,86.912,104.094,86.619,102.922,86.04L102.922,86.04z" fill="#FFFFFF"></path> </g> </svg> 