<?xml version="1.0" encoding="UTF-8"?> <svg xmlns="http://www.w3.org/2000/svg" xmlns:xlink="http://www.w3.org/1999/xlink" id="кнопка" width="170" height="53" viewBox="0 0 170 53"> <defs> <style> .cls-1 { fill: #d39f4e; } .cls-1, .cls-2 { fill-rule: evenodd; } .cls-2 { fill: url(#linear-gradient); } </style> <linearGradient id="linear-gradient" x1="1453.06" y1="71.875" x2="1453.06" y2="21.875" gradientUnits="userSpaceOnUse"> <stop offset="0" stop-color="#efc060"></stop> <stop offset="1" stop-color="#faedab"></stop> </linearGradient> </defs> <path id="Прямоугольник_скругл._углы_1" data-name="Прямоугольник, скругл. углы 1" class="cls-1" d="M1378.06,24.875h150a10,10,0,0,1,10,10v30a10,10,0,0,1-10,10h-150a10,10,0,0,1-10-10v-30A10,10,0,0,1,1378.06,24.875Z" transform="translate(-1368.06 -21.875)"></path> <path id="Прямоугольник_скругл._углы_1-2" data-name="Прямоугольник, скругл. углы 1" class="cls-2" d="M1374.06,21.875h158a6,6,0,0,1,6,6v38a6,6,0,0,1-6,6h-158a6,6,0,0,1-6-6v-38A6,6,0,0,1,1374.06,21.875Z" transform="translate(-1368.06 -21.875)"></path> <image id="Перезвоните_мне" data-name="Перезвоните мне" x="30.94" y="21.125" width="107" height="9"></image> </svg> 